<?xml version="1.0" encoding="iso-8859-1"?>
<!-- Generator: Adobe Illustrator 19.0.0, SVG Export Plug-In . SVG Version: 6.00 Build 0)  -->
<svg version="1.1" id="Layer_1" xmlns="http://www.w3.org/2000/svg" xmlns:xlink="http://www.w3.org/1999/xlink" x="0px" y="0px"
	 viewBox="0 0 503.467 503.467" style="enable-background:new 0 0 503.467 503.467;" xml:space="preserve">
<g transform="translate(1 9)">
	<path style="fill:#FFD0A1;" d="M412.867,123.267V157.4c0,25.6-17.067,59.733-42.667,59.733S327.534,183,327.534,157.4v-34.133
		c0,0,25.6,0,34.133-25.6C370.201,123.267,412.867,123.267,412.867,123.267z M216.601,89.134V106.2c0,4.267-3.413,8.533-8.533,8.533
		c0,17.067-8.533,34.133-8.533,34.133c-8.533,17.067-17.92,34.133-51.2,34.133s-42.667-17.067-51.2-34.133
		c0,0-8.533-17.067-8.533-34.133c-4.267,0-8.533-4.267-8.533-8.533V89.134c0-4.267,4.267-8.533,8.533-8.533v-8.533
		c0-23.893,18.773-42.667,42.667-42.667h34.133c23.893,0,42.667,18.773,42.667,42.667V80.6
		C213.187,80.6,216.601,84.867,216.601,89.134z"/>
	<path style="fill:#C49AE9;" d="M370.201,285.4c42.667,0,42.667-51.2,42.667-51.2c17.067,0,30.72,2.56,42.667,7.68l0,0
		c29.867,11.947,42.667,36.693,42.667,60.587V439l-51.2,8.533v8.533h-153.6V439V268.334c0-9.387-3.413-17.92-9.387-24.747
		l0.853-0.853c20.48-8.533,41.813-8.533,42.667-8.533C327.534,234.2,327.534,285.4,370.201,285.4"/>
	<path style="fill:#AE938D;" d="M412.867,157.4v-34.133c0,0-42.667,0-51.2-25.6c-8.533,25.6-34.133,25.6-34.133,25.6V157.4
		c0,25.6,17.067,59.733,42.667,59.733S412.867,183,412.867,157.4 M438.467,97.667l17.067,144.213
		c-11.947-4.267-25.6-7.68-42.667-7.68c0,0,0,51.2-42.667,51.2s-42.667-51.2-42.667-51.2c-0.853,0-22.187,0-42.667,8.533
		l17.067-145.067c2.56-25.6,34.133-51.2,59.733-51.2h17.067C404.334,46.467,436.761,72.067,438.467,97.667"/>
	<polyline style="fill:#AAB1BA;" points="187.587,225.667 189.294,225.667 148.334,421.934 107.374,225.667 109.08,225.667 	"/>
	<path style="fill:#80D6FA;" d="M148.334,234.2c5.12,0,8.533-3.413,8.533-8.533c0-5.12-3.413-8.533-8.533-8.533
		s-8.533,3.413-8.533,8.533C139.801,230.787,143.214,234.2,148.334,234.2z M54.467,447.534L3.267,439V268.334
		c0-34.133,42.667-51.2,102.4-51.2l1.707,8.533l40.96,196.267l40.96-196.267l1.707-8.533c42.667,0,76.8,8.533,93.013,26.453
		c5.973,6.827,9.387,15.36,9.387,24.747V439l-51.2,8.533v8.533H54.467V447.534z"/>
</g>
<path style="fill:#51565F;" d="M448.001,469.334L448.001,469.334c-2.56,0-4.267-1.707-4.267-4.267l0,0l0.853-136.533
	c0-2.56,1.707-4.267,4.267-4.267l0,0c2.56,0,4.267,1.707,4.267,4.267l0,0l-0.853,136.533
	C452.267,467.627,450.561,469.334,448.001,469.334z M243.201,469.334c-2.56,0-4.267-1.707-4.267-4.267V328.534
	c0-2.56,1.707-4.267,4.267-4.267s4.267,1.707,4.267,4.267v136.533C247.467,467.627,245.761,469.334,243.201,469.334z
	 M55.467,469.334c-2.56,0-4.267-1.707-4.267-4.267V328.534c0-2.56,1.707-4.267,4.267-4.267c2.56,0,4.267,1.707,4.267,4.267v136.533
	C59.734,467.627,58.027,469.334,55.467,469.334z M499.201,452.267c-2.56,0-4.267-1.707-4.267-4.267V311.467
	c0-16.213-5.973-30.72-17.067-41.813C464.214,256,443.734,248.32,418.134,248.32c-1.707,18.773-11.093,48.64-42.667,51.2v46.933
	c0,2.56-1.707,4.267-4.267,4.267s-4.267-1.707-4.267-4.267V299.52c-33.28-2.56-42.667-36.693-42.667-55.467
	c0-2.56,1.707-4.267,4.267-4.267l0,0c2.56,0,4.267,1.707,4.267,4.267c0,1.707,0.853,46.933,38.4,46.933s38.4-45.227,38.4-46.933
	c0-2.56,1.707-4.267,4.267-4.267c29.867,0,53.76,8.533,69.973,23.893c12.8,12.8,19.627,29.867,19.627,47.787V448
	C503.467,450.56,501.761,452.267,499.201,452.267z M294.401,452.267c-2.56,0-4.267-1.707-4.267-4.267V277.334
	c0-9.387-3.413-17.067-10.24-23.893c-14.507-14.507-44.373-23.04-84.48-23.04l-41.813,201.387v0.853
	c0,0.853-0.853,0.853-0.853,1.707c-0.853,0.853-0.853,0.853-1.707,0.853c-0.853,0-0.853,0-1.707,0l0,0l0,0c-0.853,0-0.853,0-1.707,0
	s-0.853-0.853-1.707-0.853c-0.853,0-0.853-0.853-0.853-1.707v-0.853L103.253,230.4c-40.107,0-69.973,8.533-84.48,23.04
	c-6.827,6.827-10.24,14.507-10.24,23.893V448c0,2.56-1.707,4.267-4.267,4.267S0,450.56,0,448V277.334
	C0,266.24,4.267,256,12.8,247.467c17.067-17.067,49.493-25.6,93.867-25.6c2.56,0,4.267,0.853,5.12,3.413l38.4,184.32l38.4-184.32
	c0.853-2.56,2.56-3.413,5.12-3.413c43.52,0,76.8,9.387,93.867,25.6c8.533,8.533,12.8,17.92,12.8,29.867V448
	C298.667,450.56,296.961,452.267,294.401,452.267z M149.334,315.734c-2.56,0-4.267-1.707-4.267-4.267v-64.853
	c-5.12-1.707-8.533-6.827-8.533-11.947c0-6.827,5.973-12.8,12.8-12.8s12.8,5.973,12.8,12.8c0,5.973-3.413,10.24-8.533,11.947v64.853
	C153.601,314.027,151.894,315.734,149.334,315.734z M149.334,230.4c-2.56,0-4.267,1.707-4.267,4.267c0,2.56,1.707,4.267,4.267,4.267
	s4.267-1.707,4.267-4.267C153.601,232.107,151.894,230.4,149.334,230.4z M371.201,230.4c-29.013,0-46.933-37.547-46.933-64v-34.133
	c0-2.56,1.707-4.267,4.267-4.267c0.853,0,23.04,0,29.867-23.04c0.853-3.413,6.827-3.413,7.68,0
	c7.68,22.187,46.933,23.04,46.933,23.04c2.56,0,4.267,1.707,4.267,4.267V166.4C418.134,192.854,400.214,230.4,371.201,230.4z
	 M332.801,136.534V166.4c0,23.04,15.36,55.467,38.4,55.467s38.4-32.427,38.4-55.467v-29.867
	c-10.24-0.853-34.987-4.267-46.933-19.627C354.987,129.707,342.187,134.827,332.801,136.534z M448.001,221.867
	c-2.56,0-4.267-1.707-4.267-4.267l-8.533-110.933c-1.707-22.187-31.573-46.933-55.467-46.933h-17.067
	c-24.747,0-53.76,24.747-55.467,46.933L298.667,217.6c0,2.56-2.56,4.267-4.267,4.267c-2.56,0-4.267-2.56-4.267-4.267l8.533-110.933
	c2.56-26.453,34.987-55.467,64-55.467h17.067c26.453,0,61.44,25.6,64,55.467l8.533,110.933
	C452.267,219.307,450.561,221.867,448.001,221.867L448.001,221.867z M149.334,196.267c-36.693,0-46.933-21.333-54.613-36.693
	c0-0.853-7.68-16.213-8.533-32.427c-5.12-1.707-8.533-6.827-8.533-11.947V98.134c0-5.973,3.413-10.24,8.533-11.947v-5.12
	c0-25.6,21.333-46.933,46.933-46.933h34.133c25.6,0,46.933,21.333,46.933,46.933v5.12c5.12,1.707,8.533,6.827,8.533,11.947V115.2
	c0,5.973-3.413,10.24-8.533,11.947c-0.853,16.213-8.533,31.573-8.533,32.427C196.267,174.934,186.027,196.267,149.334,196.267z
	 M132.267,42.667c-21.333,0-38.4,17.067-38.4,38.4V89.6c0,2.56-1.707,4.267-4.267,4.267s-4.267,1.707-4.267,4.267V115.2
	c0,2.56,1.707,4.267,4.267,4.267s4.267,1.707,4.267,4.267c0,16.213,7.68,32.427,7.68,32.427
	c9.387,18.773,17.92,31.573,47.787,31.573s38.4-12.8,47.787-31.573c0,0,7.68-16.213,7.68-32.427c0-2.56,1.707-4.267,4.267-4.267
	s4.267-1.707,4.267-4.267V98.134c0-2.56-1.707-4.267-4.267-4.267s-4.267-1.707-4.267-4.267v-8.533c0-21.333-17.067-38.4-38.4-38.4
	H132.267z M174.934,110.934h-8.533c-2.56,0-4.267-1.707-4.267-4.267c0-2.56,1.707-4.267,4.267-4.267h8.533
	c2.56,0,4.267,1.707,4.267,4.267C179.201,109.227,177.494,110.934,174.934,110.934z M132.267,110.934h-8.533
	c-2.56,0-4.267-1.707-4.267-4.267c0-2.56,1.707-4.267,4.267-4.267h8.533c2.56,0,4.267,1.707,4.267,4.267
	C136.534,109.227,134.827,110.934,132.267,110.934z"/>
<g>
</g>
<g>
</g>
<g>
</g>
<g>
</g>
<g>
</g>
<g>
</g>
<g>
</g>
<g>
</g>
<g>
</g>
<g>
</g>
<g>
</g>
<g>
</g>
<g>
</g>
<g>
</g>
<g>
</g>
</svg>
